<mxfile host="app.diagrams.net" modified="2023-01-09T12:45:46.828Z" agent="5.0 (Macintosh; Intel Mac OS X 10_15_7) AppleWebKit/537.36 (KHTML, like Gecko) Chrome/108.0.0.0 Safari/537.36" etag="COiUMWhUIw57cYPwQeZ3" version="20.5.1" type="github">
  <diagram id="sUasWcrDuBd9ssfnBxm4" name="第 1 页">
    <mxGraphModel dx="1018" dy="658" grid="1" gridSize="10" guides="1" tooltips="1" connect="1" arrows="1" fold="1" page="1" pageScale="1" pageWidth="827" pageHeight="1169" math="0" shadow="0">
      <root>
        <mxCell id="0" />
        <mxCell id="1" parent="0" />
        <mxCell id="mwmjm3eAAF9vCACU9gLx-1" value="sp[{2, 3, 4}, 1]" style="rounded=0;whiteSpace=wrap;html=1;" vertex="1" parent="1">
          <mxGeometry x="350" y="130" width="100" height="40" as="geometry" />
        </mxCell>
        <mxCell id="mwmjm3eAAF9vCACU9gLx-2" value="sp[{3, 4}, 2]" style="rounded=0;whiteSpace=wrap;html=1;" vertex="1" parent="1">
          <mxGeometry x="210" y="220" width="100" height="40" as="geometry" />
        </mxCell>
        <mxCell id="mwmjm3eAAF9vCACU9gLx-3" value="sp[{2, 4}, 3]" style="rounded=0;whiteSpace=wrap;html=1;" vertex="1" parent="1">
          <mxGeometry x="350" y="220" width="100" height="40" as="geometry" />
        </mxCell>
        <mxCell id="mwmjm3eAAF9vCACU9gLx-4" value="sp[{2, 3}, 4]" style="rounded=0;whiteSpace=wrap;html=1;" vertex="1" parent="1">
          <mxGeometry x="490" y="220" width="100" height="40" as="geometry" />
        </mxCell>
        <mxCell id="mwmjm3eAAF9vCACU9gLx-5" value="sp[{4}, 3]" style="rounded=0;whiteSpace=wrap;html=1;" vertex="1" parent="1">
          <mxGeometry x="120" y="350" width="70" height="30" as="geometry" />
        </mxCell>
        <mxCell id="mwmjm3eAAF9vCACU9gLx-6" value="sp[{3}, 4]" style="rounded=0;whiteSpace=wrap;html=1;" vertex="1" parent="1">
          <mxGeometry x="210" y="350" width="70" height="30" as="geometry" />
        </mxCell>
        <mxCell id="mwmjm3eAAF9vCACU9gLx-7" value="sp[{2}, 4]" style="rounded=0;whiteSpace=wrap;html=1;" vertex="1" parent="1">
          <mxGeometry x="300" y="350" width="70" height="30" as="geometry" />
        </mxCell>
        <mxCell id="mwmjm3eAAF9vCACU9gLx-8" value="sp[{4}, 2]" style="rounded=0;whiteSpace=wrap;html=1;" vertex="1" parent="1">
          <mxGeometry x="390" y="350" width="70" height="30" as="geometry" />
        </mxCell>
        <mxCell id="mwmjm3eAAF9vCACU9gLx-9" value="sp[{2}, 3]" style="rounded=0;whiteSpace=wrap;html=1;" vertex="1" parent="1">
          <mxGeometry x="480" y="350" width="70" height="30" as="geometry" />
        </mxCell>
        <mxCell id="mwmjm3eAAF9vCACU9gLx-10" value="sp[{3}, 2]" style="rounded=0;whiteSpace=wrap;html=1;" vertex="1" parent="1">
          <mxGeometry x="570" y="350" width="70" height="30" as="geometry" />
        </mxCell>
        <mxCell id="mwmjm3eAAF9vCACU9gLx-11" value="sp[∅, 4]" style="rounded=0;whiteSpace=wrap;html=1;" vertex="1" parent="1">
          <mxGeometry x="125" y="430" width="60" height="30" as="geometry" />
        </mxCell>
        <mxCell id="mwmjm3eAAF9vCACU9gLx-12" value="sp[∅, 3]" style="rounded=0;whiteSpace=wrap;html=1;" vertex="1" parent="1">
          <mxGeometry x="215" y="430" width="60" height="30" as="geometry" />
        </mxCell>
        <mxCell id="mwmjm3eAAF9vCACU9gLx-13" value="sp[∅, 2]" style="rounded=0;whiteSpace=wrap;html=1;" vertex="1" parent="1">
          <mxGeometry x="305" y="430" width="60" height="30" as="geometry" />
        </mxCell>
        <mxCell id="mwmjm3eAAF9vCACU9gLx-14" value="sp[∅, 4]" style="rounded=0;whiteSpace=wrap;html=1;" vertex="1" parent="1">
          <mxGeometry x="395" y="430" width="60" height="30" as="geometry" />
        </mxCell>
        <mxCell id="mwmjm3eAAF9vCACU9gLx-15" value="sp[∅, 2]" style="rounded=0;whiteSpace=wrap;html=1;" vertex="1" parent="1">
          <mxGeometry x="485" y="430" width="60" height="30" as="geometry" />
        </mxCell>
        <mxCell id="mwmjm3eAAF9vCACU9gLx-16" value="sp[∅, 3]" style="rounded=0;whiteSpace=wrap;html=1;" vertex="1" parent="1">
          <mxGeometry x="575" y="430" width="60" height="30" as="geometry" />
        </mxCell>
      </root>
    </mxGraphModel>
  </diagram>
</mxfile>
